<svg xmlns="http://www.w3.org/2000/svg" xmlns:xlink="http://www.w3.org/1999/xlink" width="400" zoomAndPan="magnify" viewBox="0 0 300 299.999988" height="400" preserveAspectRatio="xMidYMid meet" version="1.0"><path fill="#000000" d="M 150 2.363281 C 157.300781 2.363281 164.621094 2.90625 171.875 3.992188 C 135.09375 18.070312 110.148438 53.738281 110.148438 93.757812 C 110.148438 146.765625 153.261719 189.875 206.269531 189.875 C 246.285156 189.875 281.953125 164.929688 296.03125 128.148438 C 297.117188 135.402344 297.660156 142.722656 297.660156 150.023438 C 297.660156 231.425781 231.425781 297.660156 150.023438 297.660156 C 68.621094 297.660156 2.363281 231.402344 2.363281 150 C 2.363281 68.597656 68.597656 2.363281 150 2.363281 M 150 0 C 67.15625 0 0 67.15625 0 150 C 0 232.84375 67.15625 300 150 300 C 232.84375 300 300 232.84375 300 150 C 300 139.203125 298.84375 128.667969 296.667969 118.535156 C 285.804688 158.292969 249.449219 187.511719 206.242188 187.511719 C 154.464844 187.511719 112.488281 145.535156 112.488281 93.757812 C 112.488281 50.550781 141.707031 14.21875 181.464844 3.332031 C 171.308594 1.15625 160.796875 0 150 0 Z M 150 0 " fill-opacity="1" fill-rule="nonzero"/></svg>