<svg xmlns="http://www.w3.org/2000/svg" xmlns:xlink="http://www.w3.org/1999/xlink" width="400" zoomAndPan="magnify" viewBox="0 0 300 299.999988" height="400" preserveAspectRatio="xMidYMid meet" version="1.0"><defs><clipPath id="798c7bd421"><path d="M 0 86 L 300 86 L 300 214.5 L 0 214.5 Z M 0 86 " clip-rule="nonzero"/></clipPath></defs><g clip-path="url(#798c7bd421)"><path fill="#000000" d="M 298.703125 124.449219 C 297.402344 122.601562 294.867188 122.195312 293.050781 123.476562 L 280.121094 132.597656 C 276.648438 120.605469 269.746094 109.910156 260.011719 101.695312 C 247.128906 90.828125 230.875 85.578125 214.175781 87.070312 C 182.300781 89.808594 157.902344 116.136719 156.410156 147.570312 L 145.1875 147.570312 C 145.078125 147.570312 144.976562 147.578125 144.871094 147.585938 C 144.832031 146.804688 144.785156 146.023438 144.71875 145.234375 C 143.292969 128.167969 135.324219 112.707031 122.285156 101.695312 C 109.402344 90.828125 93.1875 85.578125 76.449219 87.070312 C 49.519531 89.386719 27.929688 108.535156 20.976562 133.371094 L 6.949219 123.476562 C 5.144531 122.195312 2.597656 122.601562 1.296875 124.449219 C 0.0078125 126.28125 0.441406 128.8125 2.277344 130.101562 L 19.1875 142.03125 C 18.570312 146.578125 18.433594 151.261719 18.828125 156.019531 C 20.265625 173.089844 28.234375 188.550781 41.289062 199.5625 C 52.753906 209.238281 66.925781 214.417969 81.679688 214.417969 C 83.476562 214.417969 85.285156 214.34375 87.101562 214.183594 C 118.324219 211.503906 142.363281 186.210938 144.75 155.664062 C 144.890625 155.679688 145.039062 155.6875 145.1875 155.6875 L 156.535156 155.6875 C 156.542969 155.800781 156.550781 155.910156 156.558594 156.019531 C 157.996094 173.089844 165.964844 188.554688 179.003906 199.5625 C 190.480469 209.242188 204.65625 214.417969 219.398438 214.417969 C 221.203125 214.417969 223.011719 214.34375 224.832031 214.183594 C 259.546875 211.203125 285.386719 180.269531 282.449219 145.234375 C 282.335938 143.882812 282.175781 142.539062 281.984375 141.207031 L 297.71875 130.101562 C 299.558594 128.8125 299.992188 126.28125 298.703125 124.449219 Z M 86.40625 206.097656 C 71.902344 207.296875 57.722656 202.8125 46.519531 193.359375 C 35.125 183.746094 28.171875 170.246094 26.925781 155.34375 C 24.367188 124.753906 46.898438 97.757812 77.144531 95.15625 C 78.722656 95.019531 80.304688 94.957031 81.871094 94.957031 C 94.710938 94.957031 107.054688 99.464844 117.042969 107.898438 C 128.433594 117.503906 135.386719 131.003906 136.625 145.914062 C 139.203125 176.503906 116.671875 203.5 86.40625 206.097656 Z M 224.132812 206.097656 C 209.613281 207.296875 195.449219 202.8125 184.246094 193.359375 C 172.855469 183.75 165.902344 170.25 164.652344 155.34375 C 162.097656 124.753906 184.628906 97.757812 214.875 95.15625 C 216.449219 95.019531 218.035156 94.957031 219.597656 94.957031 C 232.441406 94.957031 244.785156 99.464844 254.769531 107.898438 C 264.652344 116.230469 271.191406 127.492188 273.558594 140.0625 C 273.574219 140.140625 273.589844 140.222656 273.605469 140.300781 C 273.945312 142.144531 274.195312 144.015625 274.355469 145.914062 C 276.933594 176.503906 254.402344 203.5 224.132812 206.097656 Z M 224.132812 206.097656 " fill-opacity="1" fill-rule="nonzero"/></g></svg>