<svg xmlns="http://www.w3.org/2000/svg" xmlns:xlink="http://www.w3.org/1999/xlink" width="400" zoomAndPan="magnify" viewBox="0 0 300 299.999988" height="400" preserveAspectRatio="xMidYMid meet" version="1.0"><path fill="#000000" d="M 128.183594 300 C 89.636719 300 0 289.644531 0 193.636719 C 0 66.5 133.167969 0 204.546875 0 C 247.222656 0 278.183594 19.496094 278.183594 46.363281 C 278.183594 71.1875 261.582031 79.539062 248.222656 86.25 C 237.527344 91.621094 229.089844 95.859375 229.089844 106.363281 C 229.089844 123.152344 246.136719 125.453125 264.546875 125.453125 C 272.855469 125.453125 300 128.011719 300 160.910156 C 300 190.164062 283.957031 220.652344 254.851562 246.753906 C 253.742188 247.753906 252.015625 247.671875 251.015625 246.542969 C 250.015625 245.410156 250.097656 243.6875 251.207031 242.683594 C 279.160156 217.628906 294.546875 188.585938 294.546875 160.910156 C 294.546875 133.828125 273.558594 130.910156 264.546875 130.910156 C 252.316406 130.910156 223.636719 130.910156 223.636719 106.363281 C 223.636719 92.492188 234.886719 86.847656 245.773438 81.371094 C 259.027344 74.722656 272.726562 67.820312 272.726562 46.363281 C 272.726562 19.515625 238.421875 5.453125 204.546875 5.453125 C 135.0625 5.453125 5.453125 70.078125 5.453125 193.636719 C 5.453125 281.441406 82.351562 294.546875 128.183594 294.546875 C 152.300781 294.546875 180.488281 286.789062 207.550781 272.683594 C 208.871094 272.003906 210.53125 272.515625 211.234375 273.855469 C 211.917969 275.175781 211.40625 276.839844 210.085938 277.519531 C 182.257812 292.011719 153.175781 300 128.183594 300 " fill-opacity="1" fill-rule="nonzero"/><path fill="#000000" d="M 204.546875 27.273438 C 194.019531 27.273438 185.453125 35.839844 185.453125 46.363281 C 185.453125 56.890625 194.019531 65.453125 204.546875 65.453125 C 215.070312 65.453125 223.636719 56.890625 223.636719 46.363281 C 223.636719 35.839844 215.070312 27.273438 204.546875 27.273438 Z M 204.546875 70.910156 C 191.015625 70.910156 180 59.894531 180 46.363281 C 180 32.832031 191.015625 21.816406 204.546875 21.816406 C 218.074219 21.816406 229.089844 32.832031 229.089844 46.363281 C 229.089844 59.894531 218.074219 70.910156 204.546875 70.910156 " fill-opacity="1" fill-rule="nonzero"/><path fill="#000000" d="M 128.183594 54.546875 C 117.65625 54.546875 109.089844 63.109375 109.089844 73.636719 C 109.089844 84.160156 117.65625 92.726562 128.183594 92.726562 C 138.707031 92.726562 147.273438 84.160156 147.273438 73.636719 C 147.273438 63.109375 138.707031 54.546875 128.183594 54.546875 Z M 128.183594 98.183594 C 114.652344 98.183594 103.636719 87.167969 103.636719 73.636719 C 103.636719 60.105469 114.652344 49.089844 128.183594 49.089844 C 141.710938 49.089844 152.726562 60.105469 152.726562 73.636719 C 152.726562 87.167969 141.710938 98.183594 128.183594 98.183594 " fill-opacity="1" fill-rule="nonzero"/><path fill="#000000" d="M 68.183594 109.089844 C 57.65625 109.089844 49.089844 117.65625 49.089844 128.183594 C 49.089844 138.707031 57.65625 147.273438 68.183594 147.273438 C 78.707031 147.273438 87.273438 138.707031 87.273438 128.183594 C 87.273438 117.65625 78.707031 109.089844 68.183594 109.089844 Z M 68.183594 152.726562 C 54.652344 152.726562 43.636719 141.710938 43.636719 128.183594 C 43.636719 114.652344 54.652344 103.636719 68.183594 103.636719 C 81.710938 103.636719 92.726562 114.652344 92.726562 128.183594 C 92.726562 141.710938 81.710938 152.726562 68.183594 152.726562 " fill-opacity="1" fill-rule="nonzero"/><path fill="#000000" d="M 51.816406 190.910156 C 41.292969 190.910156 32.726562 199.472656 32.726562 210 C 32.726562 220.527344 41.292969 229.089844 51.816406 229.089844 C 62.34375 229.089844 70.910156 220.527344 70.910156 210 C 70.910156 199.472656 62.34375 190.910156 51.816406 190.910156 Z M 51.816406 234.546875 C 38.289062 234.546875 27.273438 223.53125 27.273438 210 C 27.273438 196.46875 38.289062 185.453125 51.816406 185.453125 C 65.347656 185.453125 76.363281 196.46875 76.363281 210 C 76.363281 223.53125 65.347656 234.546875 51.816406 234.546875 " fill-opacity="1" fill-rule="nonzero"/><path fill="#000000" d="M 117.273438 234.546875 C 106.746094 234.546875 98.183594 243.109375 98.183594 253.636719 C 98.183594 264.160156 106.746094 272.726562 117.273438 272.726562 C 127.796875 272.726562 136.363281 264.160156 136.363281 253.636719 C 136.363281 243.109375 127.796875 234.546875 117.273438 234.546875 Z M 117.273438 278.183594 C 103.742188 278.183594 92.726562 267.167969 92.726562 253.636719 C 92.726562 240.105469 103.742188 229.089844 117.273438 229.089844 C 130.800781 229.089844 141.816406 240.105469 141.816406 253.636719 C 141.816406 267.167969 130.800781 278.183594 117.273438 278.183594 " fill-opacity="1" fill-rule="nonzero"/><path fill="#000000" d="M 254.191406 158.183594 C 252.613281 158.183594 250.929688 158.375 249.160156 158.757812 C 242.558594 160.207031 235.738281 164.191406 229.964844 169.964844 C 218.566406 181.363281 214.75 196.855469 221.675781 203.757812 C 228.621094 210.703125 244.113281 206.890625 255.488281 195.488281 C 261.265625 189.714844 265.25 182.898438 266.699219 176.292969 C 268.0625 170.113281 267.015625 164.9375 263.757812 161.699219 C 261.457031 159.375 258.152344 158.183594 254.191406 158.183594 Z M 231.328125 212.792969 C 226.042969 212.792969 221.3125 211.109375 217.820312 207.636719 C 208.507812 198.300781 212.152344 180.0625 226.109375 166.109375 C 232.605469 159.609375 240.382812 155.09375 247.988281 153.429688 C 256.042969 151.660156 263.011719 153.21875 267.636719 157.820312 C 272.238281 162.441406 273.792969 169.410156 272.023438 177.464844 C 270.363281 185.070312 265.84375 192.847656 259.347656 199.347656 C 250.609375 208.105469 240.191406 212.792969 231.328125 212.792969 " fill-opacity="1" fill-rule="nonzero"/><path fill="#000000" d="M 258.152344 293.117188 C 258.878906 293.777344 260.09375 294.546875 261.816406 294.546875 C 264.824219 294.546875 267.273438 292.09375 267.273438 289.089844 C 267.273438 287.363281 266.484375 286.128906 265.824219 285.40625 L 166.257812 175.761719 L 148.488281 193.53125 Z M 261.816406 300 C 259.15625 300 256.535156 299 254.488281 297.1875 C 254.488281 297.1875 254.488281 297.167969 254.488281 297.167969 L 142.714844 195.660156 C 142.160156 195.148438 141.839844 194.445312 141.816406 193.699219 C 141.796875 192.953125 142.09375 192.230469 142.628906 191.71875 L 164.445312 169.902344 C 164.957031 169.367188 165.746094 169.089844 166.425781 169.089844 C 167.171875 169.113281 167.875 169.433594 168.386719 169.984375 L 269.894531 281.761719 C 271.726562 283.808594 272.726562 286.40625 272.726562 289.089844 C 272.726562 295.097656 267.828125 300 261.816406 300 " fill-opacity="1" fill-rule="nonzero"/><path fill="#000000" d="M 147.273438 193.636719 C 147.082031 193.636719 146.867188 193.613281 146.675781 193.574219 C 130.675781 189.949219 119.679688 179.0625 114.824219 162.125 C 109.132812 142.179688 113.5 117.25 120.957031 109.878906 C 121.726562 109.113281 122.898438 108.878906 123.921875 109.304688 C 124.941406 109.730469 125.605469 110.710938 125.605469 111.816406 C 125.605469 128.394531 133.933594 131.847656 144.480469 136.214844 C 156.007812 140.964844 169.089844 146.378906 169.089844 171.03125 C 169.089844 172.542969 167.875 173.757812 166.363281 173.757812 C 164.851562 173.757812 163.636719 172.542969 163.636719 171.03125 C 163.636719 150.019531 153.324219 145.761719 142.414062 141.242188 C 133.699219 137.640625 124.027344 133.65625 121.066406 120.683594 C 117.785156 129.886719 115.824219 145.78125 120.0625 160.609375 C 123.046875 171.007812 130.292969 184.261719 147.871094 188.246094 C 149.339844 188.585938 150.253906 190.035156 149.9375 191.503906 C 149.636719 192.785156 148.507812 193.636719 147.273438 193.636719 " fill-opacity="1" fill-rule="nonzero"/></svg>