<svg xmlns="http://www.w3.org/2000/svg" xmlns:xlink="http://www.w3.org/1999/xlink" width="400" zoomAndPan="magnify" viewBox="0 0 300 299.999988" height="400" preserveAspectRatio="xMidYMid meet" version="1.0"><defs><clipPath id="1feba158af"><path d="M 0 60.101562 L 300 60.101562 L 300 240.042969 L 0 240.042969 Z M 0 60.101562 " clip-rule="nonzero"/></clipPath></defs><g clip-path="url(#1feba158af)"><path fill="#000000" d="M 244.054688 233.839844 C 216.613281 233.839844 194.289062 211.496094 194.289062 184.035156 C 194.289062 167.589844 202.296875 152.980469 214.613281 143.90625 C 221.730469 161.808594 231.324219 180.128906 242.476562 186.707031 C 243.953125 187.578125 245.855469 187.085938 246.722656 185.609375 C 247.59375 184.132812 247.101562 182.230469 245.625 181.359375 C 237.335938 176.472656 228.488281 162.371094 219.941406 140.480469 C 227.085938 136.5 235.308594 134.230469 244.054688 134.230469 C 271.492188 134.230469 293.8125 156.574219 293.8125 184.035156 C 293.8125 211.496094 271.492188 233.839844 244.054688 233.839844 Z M 130.402344 188.414062 L 116.082031 139.941406 L 202.171875 105.78125 C 202.730469 107.898438 203.542969 110.871094 204.585938 114.441406 Z M 100.894531 150.6875 L 110.535156 143.054688 L 124.570312 190.566406 L 111.71875 188.8125 C 111.851562 187.234375 111.925781 185.644531 111.925781 184.035156 C 111.925781 171.550781 107.820312 160.007812 100.894531 150.6875 Z M 105.570312 187.972656 L 61.394531 181.945312 L 96.03125 154.535156 C 102.117188 162.796875 105.722656 173.003906 105.722656 184.035156 C 105.722656 185.359375 105.671875 186.671875 105.570312 187.972656 Z M 55.960938 233.839844 C 28.523438 233.839844 6.199219 211.496094 6.199219 184.035156 C 6.199219 156.574219 28.523438 134.230469 55.960938 134.230469 C 70.152344 134.230469 82.972656 140.207031 92.046875 149.777344 L 51.832031 181.601562 C 50.859375 182.375 50.4375 183.652344 50.765625 184.851562 C 51.09375 186.050781 52.105469 186.941406 53.335938 187.109375 L 104.699219 194.117188 C 100.027344 216.761719 79.949219 233.839844 55.960938 233.839844 Z M 244.054688 128.023438 C 234.539062 128.023438 225.578125 130.414062 217.726562 134.621094 C 211.257812 116.910156 207.355469 101.027344 207.316406 100.863281 C 207.308594 100.839844 207.300781 100.816406 207.292969 100.792969 C 207.277344 100.734375 207.261719 100.675781 207.242188 100.617188 C 207.226562 100.570312 207.207031 100.523438 207.191406 100.476562 C 207.179688 100.453125 207.175781 100.429688 207.164062 100.40625 L 202.015625 88.03125 L 213.773438 80.414062 C 214.640625 79.855469 215.171875 78.898438 215.1875 77.867188 C 215.207031 76.832031 214.710938 75.859375 213.863281 75.265625 L 192.964844 60.660156 C 191.5625 59.679688 189.628906 60.019531 188.648438 61.425781 C 187.667969 62.832031 188.011719 64.765625 189.414062 65.746094 L 206.535156 77.710938 L 196.472656 84.230469 C 195.214844 85.042969 194.71875 86.644531 195.296875 88.027344 L 200.230469 99.878906 L 114.316406 133.96875 L 105.1875 103.058594 L 120.574219 103.058594 C 122.285156 103.058594 123.675781 101.671875 123.675781 99.957031 C 123.675781 98.242188 122.285156 96.855469 120.574219 96.855469 L 101.085938 96.855469 C 101.082031 96.855469 101.082031 96.855469 101.078125 96.855469 L 81.367188 96.855469 C 79.65625 96.855469 78.269531 98.242188 78.269531 99.957031 C 78.269531 101.671875 79.65625 103.058594 81.367188 103.058594 L 98.722656 103.058594 L 108.644531 136.644531 L 96.925781 145.917969 C 86.699219 134.917969 72.121094 128.023438 55.960938 128.023438 C 25.105469 128.023438 0 153.152344 0 184.035156 C 0 214.917969 25.105469 240.042969 55.960938 240.042969 C 83.085938 240.042969 105.761719 220.628906 110.851562 194.957031 L 128.484375 197.363281 C 128.601562 197.378906 128.71875 197.382812 128.835938 197.386719 C 128.855469 197.386719 128.878906 197.390625 128.902344 197.390625 C 128.914062 197.390625 128.921875 197.390625 128.933594 197.390625 C 129.050781 197.386719 129.171875 197.378906 129.285156 197.363281 C 129.324219 197.359375 129.363281 197.355469 129.402344 197.347656 C 129.519531 197.328125 129.636719 197.304688 129.75 197.269531 C 129.761719 197.265625 129.773438 197.265625 129.78125 197.261719 C 129.785156 197.261719 129.789062 197.261719 129.792969 197.257812 C 129.855469 197.238281 129.921875 197.214844 129.984375 197.191406 C 130.414062 197.03125 130.792969 196.785156 131.101562 196.476562 L 206.617188 121.171875 C 208.203125 126.25 210.113281 131.988281 212.316406 137.929688 C 197.691406 148.042969 188.089844 164.9375 188.089844 184.035156 C 188.089844 214.917969 213.195312 240.042969 244.054688 240.042969 C 274.910156 240.042969 300.015625 214.917969 300.015625 184.035156 C 300.015625 153.152344 274.910156 128.023438 244.054688 128.023438 " fill-opacity="1" fill-rule="nonzero"/></g></svg>