<svg xmlns="http://www.w3.org/2000/svg" xmlns:xlink="http://www.w3.org/1999/xlink" width="400" zoomAndPan="magnify" viewBox="0 0 300 299.999988" height="400" preserveAspectRatio="xMidYMid meet" version="1.0"><defs><clipPath id="d9c8a3de02"><path d="M 169 9 L 299 9 L 299 297 L 169 297 Z M 169 9 " clip-rule="nonzero"/></clipPath></defs><path fill="#000000" d="M 147.820312 292.65625 L 37.773438 268.09375 C 25.121094 265.265625 11.109375 261.253906 4.917969 249.292969 C 0.257812 240.285156 1.800781 230.074219 3.945312 219.527344 C 8.09375 199.125 11.660156 178.445312 15.109375 158.445312 C 18.414062 139.296875 21.824219 119.53125 25.757812 99.9375 C 11.339844 93.570312 2.488281 75.671875 5.773438 58.503906 C 8.6875 43.234375 20.285156 28.96875 36.785156 20.355469 C 52.054688 12.390625 69.15625 9.730469 83.992188 7.867188 C 122.601562 3.019531 151.488281 3.71875 177.683594 10.136719 C 211.257812 18.363281 239.433594 37.339844 255 62.199219 C 261.238281 72.164062 267.960938 87.382812 264.585938 103.296875 C 261.824219 116.285156 250.105469 129.445312 235.398438 129.800781 C 231.328125 149.859375 227.535156 170.304688 223.851562 190.109375 C 220 210.828125 216.023438 232.257812 211.730469 253.234375 C 208.914062 267 205.25 281.121094 194.257812 289.273438 C 187.554688 294.238281 179.671875 295.925781 171.492188 295.925781 C 163.617188 295.925781 155.46875 294.363281 147.832031 292.65625 Z M 233.035156 123.207031 C 245.164062 124.308594 255.816406 113.101562 258.1875 101.945312 C 261.113281 88.167969 255.050781 74.617188 249.449219 65.671875 C 234.78125 42.234375 208.050781 24.308594 176.113281 16.480469 C 150.730469 10.257812 122.566406 9.605469 84.796875 14.347656 C 70.519531 16.140625 54.09375 18.683594 39.796875 26.148438 C 25.046875 33.847656 14.71875 46.410156 12.175781 59.734375 C 9.339844 74.585938 17.734375 90.636719 30.507812 94.777344 C 32.085938 95.289062 33.027344 96.902344 32.695312 98.535156 C 28.546875 118.921875 24.984375 139.582031 21.539062 159.5625 C 18.078125 179.609375 14.503906 200.335938 10.332031 220.832031 C 8.425781 230.1875 7.023438 239.179688 10.703125 246.296875 C 15.601562 255.757812 27.972656 259.21875 39.183594 261.722656 L 149.234375 286.285156 C 163.386719 289.445312 179.40625 292.136719 190.34375 284.023438 C 199.492188 277.246094 202.644531 264.96875 205.316406 251.921875 C 209.59375 231.003906 213.574219 209.605469 217.414062 188.914062 C 221.257812 168.191406 225.242188 146.769531 229.527344 125.792969 C 229.84375 124.261719 231.191406 123.183594 232.722656 123.183594 C 232.816406 123.183594 232.921875 123.183594 233.019531 123.195312 Z M 233.035156 123.207031 " fill-opacity="1" fill-rule="nonzero"/><g clip-path="url(#d9c8a3de02)"><path fill="#000000" d="M 184.265625 289.960938 C 191.308594 290.816406 198.289062 290.613281 205.085938 289.324219 C 212.101562 287.988281 220.054688 286.46875 226.113281 280.640625 C 233.230469 273.789062 234.429688 264.050781 234.945312 259.894531 L 234.984375 259.609375 C 237.261719 241.234375 244.347656 206.402344 258.691406 143.148438 C 258.976562 141.890625 259.972656 140.925781 261.230469 140.667969 C 266.804688 139.554688 280.546875 135.605469 287.777344 123.070312 C 293.050781 113.917969 292.226562 104.625 291.871094 100.660156 C 289.097656 69.425781 256.191406 47.878906 243.804688 39.765625 C 225.371094 27.691406 204.554688 19.957031 181.816406 16.707031 C 180.355469 15.769531 178.753906 15.132812 177.101562 14.632812 C 175.714844 13.507812 174.308594 12.4375 172.515625 11.753906 C 171.660156 11.429688 170.789062 11.199219 169.910156 11.011719 C 170.464844 9.808594 171.714844 9.019531 173.148438 9.136719 C 200.589844 11.558594 225.570312 20.03125 247.382812 34.3125 C 260.496094 42.902344 295.320312 65.707031 298.378906 100.085938 C 298.75 104.277344 299.742188 115.398438 293.433594 126.332031 C 285.6875 139.773438 271.921875 144.816406 264.597656 146.609375 C 250.613281 208.371094 243.683594 242.460938 241.457031 260.417969 L 241.421875 260.695312 C 240.824219 265.539062 239.421875 276.890625 230.636719 285.34375 C 223.183594 292.519531 213.828125 294.304688 206.300781 295.734375 C 201.808594 296.589844 197.25 297.019531 192.648438 297.019531 C 187.542969 297.019531 182.386719 296.488281 177.226562 295.4375 C 176.261719 295.242188 175.496094 294.632812 175.050781 293.832031 C 178.34375 293.546875 181.671875 292.53125 184.070312 290.179688 C 184.148438 290.109375 184.203125 290.03125 184.273438 289.960938 Z M 184.265625 289.960938 " fill-opacity="1" fill-rule="nonzero"/></g></svg>