<svg xmlns="http://www.w3.org/2000/svg" xmlns:xlink="http://www.w3.org/1999/xlink" width="400" zoomAndPan="magnify" viewBox="0 0 300 299.999988" height="400" preserveAspectRatio="xMidYMid meet" version="1.0"><path fill="#000000" d="M 181.9375 100.25 C 185.722656 99.460938 190.140625 99.753906 194.152344 102.734375 C 195.339844 103.617188 196.238281 104.472656 196.828125 105.324219 C 197.421875 106.1875 197.765625 107.144531 197.632812 108.148438 C 197.503906 109.152344 196.933594 109.914062 196.292969 110.460938 C 195.664062 111.003906 194.882812 111.414062 194.097656 111.738281 C 192.527344 112.382812 190.605469 112.8125 188.988281 113.132812 C 188.550781 113.21875 188.074219 113.308594 187.640625 113.390625 C 187.316406 113.453125 187.011719 113.507812 186.761719 113.558594 C 186.097656 113.6875 185.648438 113.789062 185.394531 113.871094 C 183.96875 114.339844 182 114.421875 180.085938 114.265625 C 178.140625 114.105469 176.046875 113.6875 174.324219 113.007812 C 173.460938 112.667969 172.636719 112.242188 171.960938 111.714844 C 171.289062 111.191406 170.664062 110.484375 170.394531 109.570312 C 169.796875 107.546875 171.144531 105.769531 173.148438 104.359375 C 175.011719 102.859375 178.214844 101.023438 181.9375 100.25 Z M 182.558594 103.230469 C 179.359375 103.898438 176.570312 105.507812 175.019531 106.757812 L 174.976562 106.792969 L 174.933594 106.824219 C 174.066406 107.429688 173.632812 107.917969 173.4375 108.253906 C 173.265625 108.542969 173.300781 108.664062 173.316406 108.707031 C 173.34375 108.800781 173.457031 109.019531 173.835938 109.316406 C 174.207031 109.605469 174.746094 109.902344 175.4375 110.171875 C 176.820312 110.71875 178.609375 111.089844 180.335938 111.230469 C 182.089844 111.371094 183.585938 111.261719 184.445312 110.980469 C 184.910156 110.828125 185.539062 110.695312 186.179688 110.570312 C 186.5 110.507812 186.808594 110.449219 187.125 110.390625 C 187.519531 110.316406 187.929688 110.238281 188.398438 110.148438 C 190.007812 109.828125 191.667969 109.445312 192.9375 108.921875 C 193.574219 108.660156 194.027344 108.398438 194.3125 108.152344 C 194.589844 107.914062 194.613281 107.777344 194.617188 107.75 C 194.621094 107.722656 194.640625 107.515625 194.324219 107.054688 C 193.996094 106.582031 193.386719 105.957031 192.339844 105.179688 C 189.191406 102.84375 185.722656 102.570312 182.558594 103.230469 Z M 182.558594 103.230469 " fill-opacity="1" fill-rule="evenodd"/><path fill="#000000" d="M 117.273438 89.207031 C 117.957031 87.175781 117.90625 85.378906 116.925781 83.988281 C 115.988281 82.667969 114.46875 82.097656 113.117188 81.835938 C 110.902344 81.414062 108.203125 81.675781 106.703125 81.820312 C 106.394531 81.851562 106.136719 81.875 105.945312 81.890625 C 104.601562 81.980469 102.945312 82.566406 101.421875 83.320312 C 99.871094 84.085938 98.28125 85.113281 97.074219 86.234375 C 96.472656 86.792969 95.921875 87.417969 95.527344 88.082031 C 95.136719 88.738281 94.832031 89.550781 94.910156 90.4375 C 95.085938 92.417969 96.894531 93.4375 98.984375 93.921875 C 100.863281 94.484375 104.535156 95.445312 108.117188 95.289062 C 111.75 95.128906 115.746094 93.765625 117.273438 89.207031 Z M 106.152344 84.925781 C 106.460938 84.90625 106.820312 84.871094 107.210938 84.835938 C 108.753906 84.691406 110.820312 84.496094 112.542969 84.828125 C 113.601562 85.03125 114.179688 85.378906 114.4375 85.746094 C 114.652344 86.046875 114.898438 86.71875 114.386719 88.238281 C 113.441406 91.0625 111.042969 92.113281 107.984375 92.246094 C 104.90625 92.382812 101.617188 91.53125 99.8125 90.992188 L 99.761719 90.976562 L 99.710938 90.964844 C 98.816406 90.761719 98.335938 90.519531 98.101562 90.339844 C 97.992188 90.257812 97.957031 90.199219 97.949219 90.1875 C 97.941406 90.175781 97.941406 90.175781 97.941406 90.171875 C 97.941406 90.148438 97.941406 89.980469 98.144531 89.636719 C 98.34375 89.300781 98.675781 88.902344 99.148438 88.464844 C 100.089844 87.589844 101.417969 86.71875 102.773438 86.050781 C 104.15625 85.367188 105.394531 84.980469 106.152344 84.925781 Z M 106.152344 84.925781 " fill-opacity="1" fill-rule="evenodd"/><path fill="#000000" d="M 196.957031 257.71875 C 199.3125 256.003906 200.863281 253.003906 201.792969 249.789062 C 202.738281 246.527344 203.117188 242.808594 202.953125 239.375 C 202.792969 235.972656 202.089844 232.667969 200.71875 230.339844 C 200.023438 229.160156 199.109375 228.140625 197.910156 227.542969 C 196.675781 226.921875 195.285156 226.828125 193.832031 227.277344 C 191.609375 227.964844 189.945312 229.550781 188.714844 231.46875 C 187.488281 233.386719 186.632812 235.722656 186.035156 238.121094 C 184.839844 242.914062 184.613281 248.242188 184.761719 251.703125 L 184.765625 251.792969 L 184.78125 251.878906 C 185.378906 255.578125 186.109375 258.089844 187.023438 259.671875 C 187.488281 260.476562 188.054688 261.140625 188.773438 261.558594 C 189.527344 261.996094 190.328125 262.09375 191.082031 261.957031 C 192.429688 261.710938 193.625 260.714844 194.484375 259.9375 C 194.828125 259.625 195.140625 259.328125 195.429688 259.054688 C 195.988281 258.527344 196.464844 258.078125 196.957031 257.71875 Z M 194.734375 230.1875 C 195.5 229.949219 196.074219 230.027344 196.546875 230.265625 C 197.058594 230.519531 197.59375 231.03125 198.09375 231.882812 C 199.109375 233.609375 199.761719 236.351562 199.914062 239.519531 C 200.0625 242.65625 199.710938 246.035156 198.867188 248.941406 C 198.015625 251.890625 196.71875 254.125 195.164062 255.257812 C 194.511719 255.730469 193.789062 256.414062 193.152344 257.015625 C 192.898438 257.257812 192.660156 257.484375 192.441406 257.679688 C 191.523438 258.507812 190.921875 258.890625 190.539062 258.960938 C 190.429688 258.980469 190.375 258.96875 190.304688 258.925781 C 190.195312 258.863281 189.960938 258.675781 189.660156 258.148438 C 189.042969 257.078125 188.382812 255.050781 187.800781 251.484375 C 187.667969 248.21875 187.894531 243.246094 188.988281 238.855469 C 189.539062 236.640625 190.292969 234.648438 191.277344 233.113281 C 192.257812 231.582031 193.40625 230.597656 194.734375 230.1875 Z M 194.734375 230.1875 " fill-opacity="1" fill-rule="evenodd"/><path fill="#000000" d="M 191.050781 0.582031 C 211.949219 -0.00390625 226.5625 4.765625 236.789062 11.667969 C 246.214844 18.027344 252.03125 26.074219 255.488281 33.125 C 258.925781 40.125 260.09375 46.269531 260.09375 48.957031 L 260.09375 52.035156 L 257.335938 50.65625 C 246.097656 45.035156 230.863281 42.617188 209.546875 42.617188 C 204.601562 42.617188 201.546875 43.511719 200.054688 44.535156 C 199.332031 45.03125 199.101562 45.460938 199.035156 45.71875 C 198.980469 45.945312 198.984375 46.296875 199.316406 46.824219 C 200.054688 47.992188 202.140625 49.535156 206.113281 50.710938 C 209.996094 51.859375 215.398438 52.570312 222.328125 52.328125 C 238.730469 51.753906 251.15625 53.761719 258.683594 55.796875 C 260.203125 56.207031 261.074219 56.449219 263.070312 57.582031 C 263.5625 57.859375 264.300781 58.375 264.949219 58.859375 C 265.597656 59.339844 266.304688 59.898438 266.714844 60.289062 C 268.390625 61.890625 268.964844 62.816406 269.953125 64.410156 C 277.429688 76.4375 286.878906 99.597656 286.878906 122.453125 L 286.878906 126.179688 L 283.859375 123.996094 C 274.160156 116.972656 261.75 109.613281 249.429688 105.585938 C 237.054688 101.539062 225.203125 100.988281 216.191406 106.90625 C 215.980469 107.042969 215.789062 107.175781 215.617188 107.292969 L 215.707031 107.308594 C 216.757812 107.460938 218.082031 107.597656 219.703125 107.765625 L 220.324219 107.828125 C 227.902344 108.617188 240.488281 110.039062 254.757812 116.085938 C 268.972656 122.109375 278.265625 129.296875 283.875 136.941406 C 289.507812 144.613281 291.351562 152.644531 290.828125 160.160156 C 290.023438 171.710938 285.601562 189.214844 283.511719 196.476562 L 282.773438 199.050781 L 280.585938 197.503906 C 274.65625 193.3125 265.117188 187.203125 255.816406 182.511719 C 251.164062 180.167969 246.625 178.203125 242.65625 177.003906 C 238.605469 175.78125 235.46875 175.460938 233.449219 176.03125 C 230.453125 176.875 229.605469 177.984375 229.414062 178.695312 C 229.203125 179.476562 229.476562 180.816406 231.070312 182.753906 C 234.183594 186.546875 240.996094 190.929688 249.429688 194.175781 C 251.308594 194.898438 253.167969 195.589844 254.960938 196.257812 L 254.96875 196.257812 L 254.96875 196.261719 L 254.984375 196.265625 L 254.992188 196.265625 L 254.992188 196.269531 C 257.183594 197.082031 259.273438 197.859375 261.183594 198.613281 C 264.714844 200.011719 267.910156 201.433594 270.558594 203.121094 C 273.222656 204.816406 275.417969 206.832031 276.859375 209.445312 C 278.3125 212.078125 278.910156 215.160156 278.640625 218.832031 C 278.496094 220.789062 277.820312 223.214844 276.847656 225.890625 C 275.859375 228.601562 274.519531 231.703125 272.953125 235.054688 C 270.503906 240.316406 267.460938 246.289062 264.332031 252.441406 C 263.480469 254.117188 262.621094 255.804688 261.765625 257.496094 C 257.75 265.425781 253.796875 273.433594 250.847656 280.554688 C 247.867188 287.75 246.035156 293.761719 246.035156 297.792969 L 246.035156 300.023438 L 243.832031 299.671875 C 234.890625 298.246094 221.78125 298.503906 207.953125 298.78125 L 207.949219 298.78125 C 204.535156 298.847656 201.074219 298.917969 197.625 298.960938 C 188.980469 299.074219 180.429688 299.027344 172.910156 298.402344 C 165.441406 297.777344 158.777344 296.566406 154.027344 294.226562 C 130.988281 282.871094 119.085938 254 134.75 225.039062 C 142.28125 211.117188 146.1875 199.742188 147.011719 193 C 147.214844 191.328125 147.21875 190.023438 147.078125 189.082031 C 146.929688 188.097656 146.667969 187.753906 146.582031 187.675781 C 146.558594 187.652344 146.550781 187.648438 146.527344 187.644531 C 146.488281 187.636719 146.363281 187.625 146.113281 187.6875 C 145.578125 187.820312 144.730469 188.242188 143.550781 189.191406 C 138.660156 193.136719 131.082031 201.578125 125.308594 212.726562 C 119.542969 223.863281 115.65625 237.539062 117.882812 252.019531 C 119.730469 264.027344 120.886719 272.199219 121.578125 277.542969 C 122.265625 282.8125 122.515625 285.445312 122.515625 286.257812 L 122.515625 288.496094 L 120.308594 288.136719 C 112.875 286.925781 101.835938 282.335938 91.355469 275.359375 C 80.871094 268.375 70.6875 258.832031 65.210938 247.535156 C 61.65625 240.195312 61.757812 229.777344 64.566406 219.3125 C 67.394531 208.78125 73.042969 197.867188 81.019531 189.375 C 81.636719 188.714844 82.269531 188.042969 82.914062 187.359375 C 90.335938 179.476562 99.113281 170.148438 105.359375 161.46875 C 108.757812 156.746094 111.304688 152.34375 112.507812 148.570312 C 113.710938 144.792969 113.449219 142.050781 111.890625 140.132812 C 111.269531 139.367188 110.574219 139.113281 109.582031 139.25 C 108.441406 139.40625 106.917969 140.101562 105.042969 141.464844 C 101.320312 144.171875 96.914062 148.972656 92.429688 154.726562 C 83.496094 166.199219 74.671875 180.917969 70.941406 188.546875 C 64.859375 200.984375 53.441406 222.132812 48.5 231.140625 L 47.234375 233.457031 L 45.4375 231.523438 C 38.949219 224.53125 29.429688 212.878906 21.914062 200.585938 C 18.15625 194.4375 14.867188 188.082031 12.71875 182.03125 C 10.578125 176.011719 9.503906 170.121094 10.371094 164.984375 C 11.425781 158.746094 14.617188 152.316406 18.992188 146.171875 C 23.378906 140.011719 29.023438 134.03125 35.121094 128.6875 C 47.25 118.046875 61.449219 109.65625 71.449219 107.414062 C 75.984375 106.394531 77.792969 104.652344 78.289062 103.390625 C 78.726562 102.292969 78.410156 100.851562 76.707031 99.523438 C 73.308594 96.875 64.964844 95.636719 54.859375 102.90625 C 38.222656 114.871094 20.527344 135.523438 13.757812 144.371094 L 11 147.980469 L 10.363281 143.484375 C 9.355469 136.371094 8.691406 124.679688 9.941406 112.574219 C 11.191406 100.519531 14.371094 87.765625 21.277344 78.777344 C 29.535156 68.039062 39.648438 56.136719 51.554688 47.886719 C 63.503906 39.605469 77.40625 34.90625 93.082031 38.871094 C 106.644531 42.300781 116.398438 49.199219 122.589844 55.199219 L 122.601562 55.214844 C 123.90625 56.476562 124.929688 56.996094 125.65625 57.167969 C 126.339844 57.328125 126.871094 57.214844 127.332031 56.960938 C 128.394531 56.371094 129.261719 54.898438 129.59375 53.539062 C 134.953125 31.460938 151.589844 1.691406 191.050781 0.582031 Z M 234.660156 14.824219 C 225.203125 8.441406 211.40625 3.816406 191.15625 4.386719 C 154.1875 5.425781 138.460938 33.128906 133.292969 54.433594 C 132.886719 56.109375 131.828125 58.371094 129.964844 59.777344 C 132.03125 62.644531 134.367188 66.015625 136.933594 69.875 C 147.085938 46.367188 161.347656 30.21875 179.757812 22.488281 C 198.011719 14.820312 220.136719 15.527344 245.980469 25.21875 C 243.039062 21.5625 239.324219 17.972656 234.660156 14.824219 Z M 146.699219 85.132812 C 143.761719 80.378906 140.996094 76.046875 138.445312 72.15625 C 148.480469 48.246094 162.59375 32.171875 180.640625 24.59375 C 198.957031 16.902344 221.558594 17.863281 248.511719 28.648438 C 249.921875 30.738281 251.097656 32.8125 252.074219 34.800781 C 254.214844 39.171875 255.367188 43.082031 255.898438 45.800781 C 244.261719 40.839844 229.234375 38.8125 209.546875 38.8125 C 204.308594 38.8125 200.335938 39.730469 197.902344 41.394531 C 196.660156 42.246094 195.703125 43.378906 195.347656 44.785156 C 194.984375 46.222656 195.328125 47.636719 196.101562 48.859375 C 197.582031 51.195312 200.753906 53.09375 205.03125 54.359375 C 209.394531 55.652344 215.226562 56.382812 222.460938 56.128906 C 238.496094 55.570312 250.542969 57.539062 257.691406 59.472656 L 257.753906 59.488281 C 259.035156 59.832031 259.589844 59.984375 261.195312 60.890625 C 261.460938 61.042969 262.039062 61.4375 262.675781 61.914062 C 263.316406 62.386719 263.859375 62.828125 264.082031 63.039062 C 265.414062 64.3125 265.796875 64.925781 266.714844 66.40625 L 266.722656 66.417969 C 269.5 70.886719 272.566406 76.972656 275.285156 84.019531 C 275.164062 83.976562 275.042969 83.933594 274.917969 83.886719 C 272.28125 82.949219 268.632812 81.789062 264.199219 80.570312 C 255.332031 78.132812 243.28125 75.441406 229.792969 73.757812 C 203.378906 70.460938 171.214844 71 146.699219 85.132812 Z M 276.339844 86.859375 C 275.730469 86.613281 275 86.339844 274.152344 86.039062 C 271.574219 85.121094 267.984375 83.980469 263.59375 82.773438 C 254.8125 80.359375 242.871094 77.691406 229.511719 76.023438 C 203.25 72.746094 171.742188 73.359375 147.898438 87.078125 C 155.308594 99.152344 163.785156 113.820312 172.863281 130.78125 C 238.886719 124.898438 274.65625 151.261719 286.117188 167.621094 C 286.542969 164.875 286.867188 162.25 287.03125 159.894531 C 287.496094 153.238281 285.882812 146.105469 280.808594 139.195312 C 275.714844 132.253906 267.054688 125.433594 253.273438 119.589844 C 239.542969 113.773438 227.425781 112.394531 219.933594 111.617188 L 219.304688 111.550781 C 217.703125 111.386719 216.292969 111.238281 215.15625 111.074219 C 214.511719 110.980469 213.914062 110.875 213.390625 110.742188 C 212.890625 110.617188 212.339844 110.441406 211.863281 110.160156 C 211.390625 109.878906 210.71875 109.320312 210.546875 108.359375 C 210.382812 107.429688 210.785156 106.679688 211.097656 106.246094 C 211.699219 105.40625 212.808594 104.574219 214.101562 103.722656 C 224.558594 96.859375 237.832031 97.789062 250.609375 101.96875 C 262.136719 105.734375 273.613281 112.25 282.988281 118.714844 C 282.480469 107.566406 279.785156 96.453125 276.339844 86.859375 Z M 285.5625 170.941406 C 276.4375 155.835938 241.695312 127.238281 174.03125 132.972656 C 187.191406 157.710938 201.554688 187.195312 215.722656 220.527344 C 242.726562 220.59375 260.765625 229.53125 268.488281 235.601562 C 268.835938 234.871094 269.175781 234.152344 269.503906 233.445312 C 271.046875 230.140625 272.335938 227.152344 273.269531 224.589844 C 274.214844 221.996094 274.742188 219.972656 274.84375 218.554688 C 275.070312 215.46875 274.558594 213.152344 273.527344 211.285156 C 272.488281 209.398438 270.835938 207.808594 268.515625 206.332031 C 266.183594 204.84375 263.261719 203.527344 259.785156 202.15625 C 257.863281 201.394531 255.855469 200.648438 253.71875 199.855469 C 251.929688 199.191406 250.054688 198.492188 248.0625 197.726562 C 239.367188 194.382812 231.847656 189.699219 228.128906 185.167969 C 226.304688 182.949219 225.035156 180.3125 225.738281 177.703125 C 226.464844 175.023438 228.992188 173.332031 232.417969 172.367188 C 235.539062 171.484375 239.570312 172.097656 243.753906 173.363281 C 248.019531 174.648438 252.777344 176.71875 257.53125 179.117188 C 265.957031 183.363281 274.527344 188.722656 280.570312 192.859375 C 282.0625 187.378906 284.140625 178.925781 285.5625 170.941406 Z M 243.125 291.363281 C 234.648438 267.109375 225.71875 244.1875 216.691406 222.816406 C 243.234375 223.097656 260.566406 232.105469 267.46875 237.710938 C 265.488281 241.777344 263.257812 246.160156 260.960938 250.675781 L 260.957031 250.679688 C 260.101562 252.363281 259.234375 254.0625 258.371094 255.777344 C 254.355469 263.707031 250.34375 271.828125 247.332031 279.097656 C 245.515625 283.484375 244.015625 287.664062 243.125 291.363281 Z M 124.777344 60.871094 C 125.261719 60.984375 125.730469 61.042969 126.183594 61.046875 C 127.527344 62.886719 128.992188 64.960938 130.570312 67.257812 C 99.9375 56.652344 73.785156 61.792969 53.535156 72.546875 C 35.515625 82.113281 22.171875 96.117188 14.449219 107.402344 C 16 97.5 19.015625 87.964844 24.296875 81.097656 C 32.507812 70.414062 42.324219 58.910156 53.722656 51.015625 C 65.078125 43.144531 77.855469 38.945312 92.152344 42.5625 C 104.941406 45.796875 114.125 52.296875 119.941406 57.933594 L 119.953125 57.945312 C 121.570312 59.511719 123.175781 60.492188 124.777344 60.871094 Z M 147.070312 93.035156 C 141.742188 84.21875 136.917969 76.664062 132.757812 70.476562 C 101.515625 58.71875 75 63.734375 54.605469 74.5625 C 34.726562 85.117188 20.652344 101.203125 13.757812 112.699219 C 13.746094 112.789062 13.738281 112.878906 13.730469 112.96875 C 12.75 122.417969 12.980469 131.617188 13.609375 138.417969 C 21.816406 128.269531 37.566406 110.65625 52.636719 99.816406 C 63.613281 91.921875 73.882812 92.496094 79.046875 96.519531 C 81.625 98.53125 83.078125 101.644531 81.828125 104.796875 C 80.640625 107.792969 77.296875 110.003906 72.28125 111.125 C 63.175781 113.167969 49.546875 121.09375 37.628906 131.546875 C 31.703125 136.746094 26.273438 142.511719 22.09375 148.378906 C 17.90625 154.261719 15.046875 160.152344 14.125 165.617188 C 13.410156 169.835938 14.261719 175.011719 16.304688 180.757812 C 18.246094 186.21875 21.203125 192.042969 24.671875 197.796875 C 34.199219 168.238281 70.164062 110.785156 147.070312 93.035156 Z M 26.265625 200.378906 C 32.753906 210.671875 40.542969 220.394531 46.441406 226.976562 C 51.859375 217.042969 61.957031 198.253906 67.519531 186.875 C 71.367188 179.011719 80.328125 164.070312 89.425781 152.386719 C 93.960938 146.570312 98.632812 141.417969 102.804688 138.386719 C 104.875 136.882812 107.007812 135.761719 109.066406 135.480469 C 111.273438 135.175781 113.324219 135.859375 114.847656 137.734375 C 117.570312 141.089844 117.515625 145.390625 116.132812 149.726562 C 114.75 154.070312 111.925781 158.855469 108.449219 163.691406 C 102.046875 172.589844 93.097656 182.097656 85.710938 189.941406 L 85.707031 189.945312 C 85.058594 190.636719 84.417969 191.316406 83.792969 191.980469 C 76.289062 199.96875 70.921875 210.3125 68.242188 220.296875 C 65.546875 230.347656 65.648438 239.707031 68.636719 245.878906 C 72.898438 254.667969 80.347656 262.484375 88.660156 268.777344 C 86.480469 237.535156 98.640625 167.722656 164.625 123.570312 C 158.847656 113.039062 153.363281 103.519531 148.3125 95.09375 C 70.144531 112.816406 34.644531 171.996094 26.265625 200.378906 Z M 93.464844 272.191406 C 92.554688 271.582031 91.648438 270.957031 90.746094 270.3125 L 91.074219 270.285156 C 88.375 240.5625 99.535156 169.980469 165.726562 125.582031 C 172.46875 137.945312 179.601562 151.660156 186.914062 166.597656 C 172.808594 190.996094 166.503906 217.78125 164.519531 241.136719 C 162.617188 263.535156 164.683594 282.863281 167.710938 294.003906 C 162.8125 293.320312 158.71875 292.296875 155.710938 290.8125 C 134.613281 280.414062 123.460938 253.914062 138.097656 226.847656 C 145.722656 212.753906 149.882812 200.890625 150.789062 193.460938 C 151.019531 191.59375 151.050781 189.921875 150.84375 188.519531 C 150.640625 187.160156 150.167969 185.792969 149.148438 184.863281 C 148.019531 183.832031 146.578125 183.648438 145.191406 183.992188 C 143.886719 184.316406 142.53125 185.121094 141.160156 186.230469 C 135.835938 190.523438 127.933594 199.386719 121.929688 210.976562 C 115.917969 222.585938 111.738281 237.085938 114.121094 252.597656 C 115.964844 264.585938 117.117188 272.730469 117.804688 278.03125 C 118.148438 280.664062 118.371094 282.570312 118.511719 283.886719 C 111.824219 282.28125 102.511719 278.210938 93.464844 272.191406 Z M 170.167969 294.3125 C 171.160156 294.421875 172.179688 294.519531 173.226562 294.609375 C 180.550781 295.21875 188.953125 295.265625 197.574219 295.15625 C 200.917969 295.113281 204.300781 295.046875 207.667969 294.976562 L 207.671875 294.976562 C 219.691406 294.738281 231.503906 294.5 240.5 295.410156 C 223.9375 247.605469 205.554688 204.910156 188.125 169.082031 C 174.765625 192.753906 168.722656 218.644531 166.796875 241.332031 C 164.855469 264.175781 167.09375 283.679688 170.167969 294.3125 Z M 170.167969 294.3125 " fill-opacity="1" fill-rule="evenodd"/></svg>