<svg xmlns="http://www.w3.org/2000/svg" xmlns:xlink="http://www.w3.org/1999/xlink" width="400" zoomAndPan="magnify" viewBox="0 0 300 299.999988" height="400" preserveAspectRatio="xMidYMid meet" version="1.0"><path fill="#000000" d="M 180.683594 0 C 156.246094 0 136.363281 19.882812 136.363281 44.316406 C 136.363281 50.445312 137.941406 56.070312 140.199219 61.363281 L 64.773438 61.363281 C 64.320312 61.363281 63.886719 61.449219 63.46875 61.625 C 63.050781 61.796875 62.683594 62.042969 62.363281 62.363281 C 62.042969 62.683594 61.796875 63.050781 61.625 63.46875 C 61.449219 63.886719 61.363281 64.320312 61.363281 64.773438 L 61.363281 140.09375 C 56.085938 137.851562 50.417969 136.363281 44.316406 136.363281 C 19.882812 136.363281 0 156.246094 0 180.683594 C 0 205.117188 19.882812 225 44.316406 225 C 50.417969 225 56.085938 223.40625 61.363281 221.164062 L 61.363281 296.589844 C 61.363281 297.042969 61.449219 297.476562 61.625 297.894531 C 61.796875 298.3125 62.042969 298.683594 62.363281 299 C 62.683594 299.320312 63.050781 299.566406 63.46875 299.742188 C 63.886719 299.914062 64.320312 300 64.773438 300 L 150.214844 300 C 150.902344 300.015625 151.535156 299.839844 152.117188 299.472656 C 152.699219 299.105469 153.128906 298.605469 153.410156 297.976562 C 153.691406 297.347656 153.769531 296.691406 153.65625 296.015625 C 153.539062 295.335938 153.242188 294.746094 152.769531 294.246094 C 146.820312 287.605469 143.183594 278.941406 143.183594 269.316406 C 143.183594 248.566406 159.929688 231.816406 180.683594 231.816406 C 201.433594 231.816406 218.183594 248.566406 218.183594 269.316406 C 218.183594 278.941406 214.542969 287.605469 208.59375 294.246094 C 208.121094 294.746094 207.824219 295.335938 207.707031 296.015625 C 207.59375 296.695312 207.675781 297.347656 207.953125 297.976562 C 208.234375 298.605469 208.664062 299.105469 209.246094 299.472656 C 209.828125 299.839844 210.460938 300.015625 211.152344 300 L 296.589844 300 C 297.042969 300 297.476562 299.914062 297.894531 299.742188 C 298.3125 299.566406 298.683594 299.320312 299 299 C 299.320312 298.683594 299.566406 298.3125 299.742188 297.894531 C 299.914062 297.476562 300 297.042969 300 296.589844 L 300 211.152344 C 299.996094 210.484375 299.8125 209.871094 299.453125 209.3125 C 299.089844 208.753906 298.605469 208.335938 297.996094 208.0625 C 297.390625 207.785156 296.757812 207.695312 296.097656 207.792969 C 295.4375 207.890625 294.855469 208.15625 294.355469 208.59375 C 287.710938 214.542969 278.941406 218.183594 269.316406 218.183594 C 248.566406 218.183594 231.816406 201.433594 231.816406 180.683594 C 231.816406 159.929688 248.566406 143.183594 269.316406 143.183594 C 278.941406 143.183594 287.710938 146.714844 294.355469 152.664062 C 294.847656 153.09375 295.421875 153.359375 296.070312 153.460938 C 296.722656 153.5625 297.347656 153.480469 297.949219 153.21875 C 298.554688 152.957031 299.039062 152.554688 299.410156 152.011719 C 299.78125 151.46875 299.976562 150.871094 300 150.214844 L 300 64.773438 C 300 64.320312 299.914062 63.886719 299.742188 63.46875 C 299.566406 63.050781 299.320312 62.683594 299 62.363281 C 298.683594 62.042969 298.3125 61.796875 297.894531 61.625 C 297.476562 61.449219 297.042969 61.363281 296.589844 61.363281 L 221.164062 61.363281 C 223.425781 56.070312 225 50.445312 225 44.316406 C 225 19.882812 205.117188 0 180.683594 0 Z M 180.683594 6.816406 C 201.433594 6.816406 218.183594 23.566406 218.183594 44.316406 C 218.183594 51.160156 216.277344 57.53125 213.066406 63.066406 C 212.761719 63.597656 212.609375 64.167969 212.613281 64.78125 C 212.613281 65.390625 212.769531 65.960938 213.074219 66.492188 C 213.382812 67.019531 213.804688 67.433594 214.335938 67.738281 C 214.867188 68.039062 215.4375 68.1875 216.050781 68.183594 L 293.183594 68.183594 L 293.183594 144.140625 C 286.207031 139.5625 278.269531 136.363281 269.316406 136.363281 C 244.882812 136.363281 225 156.246094 225 180.683594 C 225 205.117188 244.882812 225 269.316406 225 C 278.269531 225 286.207031 221.695312 293.183594 217.117188 L 293.183594 293.183594 L 217.222656 293.183594 C 221.800781 286.207031 225 278.269531 225 269.316406 C 225 244.882812 205.117188 225 180.683594 225 C 156.246094 225 136.363281 244.882812 136.363281 269.316406 C 136.363281 278.269531 139.5625 286.207031 144.140625 293.183594 L 68.183594 293.183594 L 68.183594 216.050781 C 68.1875 215.441406 68.039062 214.867188 67.738281 214.335938 C 67.433594 213.804688 67.019531 213.382812 66.492188 213.074219 C 65.960938 212.765625 65.390625 212.613281 64.78125 212.613281 C 64.167969 212.609375 63.597656 212.761719 63.066406 213.066406 C 57.53125 216.277344 51.160156 218.183594 44.316406 218.183594 C 23.566406 218.183594 6.816406 201.433594 6.816406 180.683594 C 6.816406 159.929688 23.566406 143.183594 44.316406 143.183594 C 51.160156 143.183594 57.53125 144.976562 63.066406 148.1875 C 63.324219 148.335938 63.59375 148.449219 63.882812 148.527344 C 64.167969 148.605469 64.457031 148.644531 64.753906 148.644531 C 65.050781 148.648438 65.339844 148.613281 65.628906 148.539062 C 65.914062 148.464844 66.1875 148.351562 66.445312 148.207031 C 66.703125 148.0625 66.9375 147.886719 67.148438 147.679688 C 67.363281 147.476562 67.542969 147.246094 67.695312 146.992188 C 67.847656 146.738281 67.964844 146.46875 68.046875 146.183594 C 68.128906 145.898438 68.175781 145.609375 68.183594 145.3125 L 68.183594 68.183594 L 145.3125 68.183594 C 145.925781 68.1875 146.496094 68.039062 147.027344 67.738281 C 147.558594 67.433594 147.980469 67.019531 148.289062 66.492188 C 148.597656 65.960938 148.75 65.390625 148.753906 64.78125 C 148.753906 64.167969 148.601562 63.597656 148.296875 63.066406 C 145.085938 57.53125 143.183594 51.160156 143.183594 44.316406 C 143.183594 23.566406 159.929688 6.816406 180.683594 6.816406 Z M 180.683594 6.816406 " fill-opacity="1" fill-rule="nonzero"/></svg>