<svg xmlns="http://www.w3.org/2000/svg" xmlns:xlink="http://www.w3.org/1999/xlink" width="400" zoomAndPan="magnify" viewBox="0 0 300 299.999988" height="400" preserveAspectRatio="xMidYMid meet" version="1.0"><path fill="#1a1a1a" d="M 15.082031 147.507812 L 102.242188 223.859375 L 99.179688 226.285156 C 95.113281 229.503906 92.402344 232.609375 91.347656 235.378906 C 90.71875 237.058594 90.757812 238.585938 91.566406 239.886719 C 92.585938 241.527344 94.726562 243.058594 98.121094 244.394531 C 106.085938 247.527344 119.90625 249.195312 140.882812 248.496094 L 51.125 140.570312 L 51.710938 141.800781 L 34.574219 120.671875 C 30.632812 115.816406 25.628906 114.992188 21.113281 116.574219 C 18.296875 117.558594 15.613281 119.441406 13.398438 121.871094 C 11.160156 124.320312 9.4375 127.296875 8.566406 130.421875 C 6.960938 136.167969 8.3125 142.582031 14.851562 147.316406 Z M 127.917969 70.734375 L 147.390625 224.113281 L 165.675781 62.039062 C 164.535156 57.996094 162.574219 55.074219 160.144531 53.207031 C 157.726562 51.355469 154.765625 50.507812 151.617188 50.601562 C 148.304688 50.699219 144.761719 51.832031 141.375 53.929688 C 136.007812 57.242188 131.070312 62.921875 127.917969 70.730469 Z M 141.566406 229.855469 L 121.453125 71.414062 C 116.46875 63.367188 109.328125 59.839844 102.277344 59.601562 C 98.523438 59.476562 94.773438 60.257812 91.382812 61.765625 C 87.984375 63.273438 84.941406 65.515625 82.578125 68.292969 C 78.257812 73.382812 76.253906 80.347656 78.660156 88.042969 L 141.566406 229.851562 Z M 172.125 63.070312 L 153.929688 224.304688 L 209.460938 70.4375 C 209.375 65.160156 207.929688 60.863281 205.585938 57.703125 C 203.53125 54.933594 200.75 53.007812 197.582031 52.058594 C 194.359375 51.082031 190.6875 51.113281 186.9375 52.246094 C 181.894531 53.769531 176.707031 57.289062 172.125 63.0625 Z M 215.433594 73.03125 L 159.085938 229.171875 L 253.441406 93.117188 C 254.675781 87.648438 254.339844 82.859375 252.84375 78.9375 C 251.363281 75.0625 248.730469 72 245.359375 69.9375 C 241.90625 67.824219 237.660156 66.726562 233.066406 66.84375 C 227.472656 66.992188 221.34375 68.945312 215.429688 73.035156 Z M 135.113281 231.378906 L 73.101562 91.582031 C 67.019531 88.496094 60.902344 87.722656 55.503906 88.664062 C 51.167969 89.421875 47.292969 91.277344 44.289062 93.917969 C 41.339844 96.507812 39.207031 99.859375 38.296875 103.644531 C 37.34375 107.625 37.726562 112.152344 39.890625 116.875 L 135.113281 231.375 Z M 154 247.921875 C 164.800781 247.558594 174.707031 247.683594 183.023438 247.792969 C 185.984375 247.828125 188.675781 247.867188 192.484375 247.867188 C 204.242188 247.867188 211.3125 245.242188 214.585938 241.675781 C 215.773438 240.390625 216.410156 238.980469 216.535156 237.585938 C 216.664062 236.167969 216.28125 234.671875 215.457031 233.234375 C 213.289062 229.496094 208.28125 226.21875 201.089844 224.984375 L 195.179688 223.960938 L 291.457031 119.550781 C 292.953125 114.566406 293.324219 108.578125 291.574219 103.617188 C 290.878906 101.628906 289.832031 99.816406 288.386719 98.324219 C 286.945312 96.84375 285.0625 95.640625 282.671875 94.867188 C 277.328125 93.128906 269.535156 93.453125 258.550781 97.1875 L 154.007812 247.921875 Z M 92.199219 223.699219 L 10.972656 152.546875 C 1.871094 145.929688 0.0234375 136.859375 2.300781 128.6875 C 3.453125 124.539062 5.703125 120.640625 8.582031 117.480469 C 11.492188 114.289062 15.109375 111.777344 18.976562 110.429688 C 23.042969 109.003906 27.347656 108.820312 31.414062 110.367188 C 31.136719 107.511719 31.34375 104.75 31.972656 102.144531 C 33.203125 97.003906 36.0625 92.488281 40.007812 89.027344 C 43.90625 85.609375 48.871094 83.207031 54.382812 82.246094 C 59.625 81.332031 65.378906 81.703125 71.1875 83.707031 C 70.542969 76.136719 73.132812 69.351562 77.601562 64.085938 C 80.597656 60.5625 84.441406 57.730469 88.730469 55.828125 C 93.007812 53.929688 97.734375 52.945312 102.476562 53.101562 C 110.203125 53.367188 117.964844 56.609375 123.972656 63.785156 C 127.628906 56.894531 132.601562 51.703125 137.957031 48.398438 C 142.332031 45.695312 146.992188 44.230469 151.441406 44.097656 C 156.0625 43.960938 160.453125 45.238281 164.097656 48.027344 C 166.5 49.871094 168.558594 52.355469 170.117188 55.503906 C 174.816406 50.648438 179.972656 47.535156 185.050781 46 C 190.050781 44.488281 195.007812 44.476562 199.4375 45.8125 C 203.941406 47.167969 207.890625 49.902344 210.804688 53.828125 C 213.121094 56.945312 214.777344 60.800781 215.535156 65.300781 C 221.355469 62.066406 227.316406 60.484375 232.910156 60.335938 C 238.777344 60.1875 244.246094 61.617188 248.746094 64.371094 C 253.335938 67.183594 256.921875 71.351562 258.933594 76.613281 C 260.398438 80.445312 261.019531 84.859375 260.5625 89.726562 C 270.960938 86.757812 278.835938 86.773438 284.667969 88.667969 C 288.121094 89.792969 290.882812 91.574219 293.03125 93.785156 C 295.183594 95.996094 296.707031 98.621094 297.699219 101.449219 C 300.03125 108.085938 299.480469 115.9375 297.433594 122.230469 L 297.210938 122.910156 L 207.722656 219.960938 C 214.066406 222.125 218.671875 225.816406 221.070312 229.96875 C 222.574219 232.585938 223.25 235.394531 223 238.171875 C 222.75 240.980469 221.5625 243.703125 219.371094 246.089844 C 214.972656 250.875 206.265625 254.398438 192.472656 254.398438 L 182.929688 254.300781 C 173.097656 254.171875 161.015625 254.015625 147.742188 254.714844 C 122.070312 256.070312 105.292969 254.230469 95.738281 250.46875 C 90.964844 248.589844 87.777344 246.15625 86.027344 243.332031 C 84.058594 240.164062 83.871094 236.691406 85.25 233.074219 C 86.421875 230.007812 88.792969 226.84375 92.183594 223.703125 Z M 92.199219 223.699219 " fill-opacity="1" fill-rule="nonzero"/></svg>