<svg xmlns="http://www.w3.org/2000/svg" xmlns:xlink="http://www.w3.org/1999/xlink" width="400" zoomAndPan="magnify" viewBox="0 0 300 299.999988" height="400" preserveAspectRatio="xMidYMid meet" version="1.0"><defs><clipPath id="7f1f0401c3"><path d="M 2 4.636719 L 298 4.636719 L 298 295.636719 L 2 295.636719 Z M 2 4.636719 " clip-rule="nonzero"/></clipPath></defs><g clip-path="url(#7f1f0401c3)"><path fill="#000000" d="M 290.402344 120.578125 C 290.390625 120.539062 290.398438 120.5 290.382812 120.460938 C 290.378906 120.449219 290.367188 120.4375 290.359375 120.421875 C 288.605469 113.90625 286.539062 107.523438 284.140625 101.320312 C 284.136719 101.3125 284.136719 101.304688 284.136719 101.296875 C 284.132812 101.289062 284.128906 101.285156 284.125 101.28125 C 278.253906 86.09375 270.492188 71.953125 260.917969 59.421875 C 233.9375 24.09375 194.578125 4.636719 150.09375 4.636719 C 105.609375 4.636719 66.25 24.09375 39.265625 59.421875 C 29.695312 71.957031 21.933594 86.09375 16.0625 101.28125 C 16.0625 101.285156 16.054688 101.289062 16.050781 101.296875 C 16.050781 101.304688 16.050781 101.3125 16.046875 101.320312 C 13.648438 107.523438 11.582031 113.90625 9.824219 120.421875 C 9.820312 120.4375 9.808594 120.445312 9.800781 120.460938 C 9.785156 120.5 9.792969 120.539062 9.78125 120.578125 C 0.5 155.105469 0.273438 193.464844 10.058594 230.082031 C 8.675781 233.238281 7.910156 236.703125 7.910156 240.304688 C 7.910156 254.304688 19.289062 265.695312 33.277344 265.695312 C 35.859375 265.695312 38.378906 265.308594 40.804688 264.550781 L 44.597656 273.691406 C 47.113281 279.761719 51.695312 284.550781 57.5 287.171875 C 67.4375 291.667969 78.710938 294.363281 91.074219 295.28125 C 91.210938 295.304688 91.347656 295.339844 91.488281 295.339844 C 91.523438 295.339844 91.558594 295.320312 91.597656 295.316406 C 94.40625 295.515625 97.253906 295.652344 100.175781 295.660156 C 100.203125 295.660156 100.230469 295.660156 100.261719 295.660156 C 108.925781 295.660156 116.917969 291.300781 121.65625 283.984375 C 126.449219 276.578125 127.148438 267.359375 123.523438 259.335938 L 81.578125 166.414062 C 78.210938 158.949219 71.371094 153.691406 63.285156 152.351562 C 55.230469 151.015625 47.117188 153.773438 41.5625 159.710938 C 39.601562 161.808594 37.785156 163.929688 36.046875 166.0625 C 35.984375 166.125 35.9375 166.195312 35.878906 166.261719 C 31.121094 172.121094 27.1875 178.132812 24.027344 184.378906 C 25.84375 137.773438 41.9375 96.027344 69.058594 68.527344 C 91.234375 46.046875 119.253906 34.164062 150.09375 34.164062 C 180.929688 34.164062 208.953125 46.046875 231.128906 68.527344 C 258.25 96.027344 274.34375 137.773438 276.160156 184.378906 C 273 178.132812 269.0625 172.121094 264.304688 166.261719 C 264.25 166.195312 264.207031 166.121094 264.140625 166.0625 C 262.398438 163.929688 260.585938 161.808594 258.621094 159.710938 C 253.066406 153.769531 244.941406 151.019531 236.902344 152.351562 C 228.816406 153.691406 221.976562 158.949219 218.609375 166.414062 L 176.664062 259.332031 C 173.039062 267.359375 173.738281 276.574219 178.53125 283.980469 C 183.269531 291.296875 191.257812 295.65625 199.925781 295.65625 C 199.957031 295.65625 199.984375 295.65625 200.015625 295.65625 C 202.933594 295.644531 205.78125 295.511719 208.589844 295.3125 C 208.628906 295.316406 208.664062 295.335938 208.699219 295.335938 C 208.839844 295.335938 208.972656 295.300781 209.109375 295.277344 C 221.472656 294.359375 232.75 291.664062 242.691406 287.167969 C 248.488281 284.546875 253.070312 279.757812 255.589844 273.6875 L 259.382812 264.546875 C 261.804688 265.300781 264.328125 265.691406 266.910156 265.691406 C 280.894531 265.691406 292.277344 254.300781 292.277344 240.300781 C 292.277344 236.695312 291.507812 233.234375 290.128906 230.074219 C 299.914062 193.464844 299.6875 155.105469 290.402344 120.578125 Z M 286.742188 224.457031 C 284.597656 221.769531 281.894531 219.511719 278.753906 217.851562 L 280.386719 213.921875 C 282.769531 208.175781 282.980469 201.773438 281.019531 195.84375 C 281.28125 172.53125 278.054688 150.183594 271.75 129.851562 L 286.585938 124.363281 C 294.632812 156.035156 294.9375 190.886719 286.742188 224.457031 Z M 275.398438 240.300781 C 275.398438 244.984375 271.589844 248.796875 266.910156 248.796875 C 266.585938 248.796875 266.273438 248.738281 265.957031 248.703125 L 272.199219 233.664062 C 274.1875 235.246094 275.398438 237.664062 275.398438 240.300781 Z M 265.210938 112.070312 L 280.660156 105.359375 C 282.417969 110.085938 283.988281 114.910156 285.367188 119.824219 L 270.289062 125.402344 C 268.75 120.847656 267.058594 116.398438 265.210938 112.070312 Z M 29.898438 125.40625 L 14.820312 119.824219 C 16.199219 114.914062 17.769531 110.089844 19.523438 105.359375 L 34.976562 112.074219 C 33.125 116.398438 31.433594 120.847656 29.898438 125.40625 Z M 13.597656 124.363281 L 28.433594 129.851562 C 22.128906 150.1875 18.902344 172.53125 19.164062 195.84375 C 17.203125 201.773438 17.414062 208.171875 19.796875 213.921875 L 21.425781 217.851562 C 18.289062 219.511719 15.585938 221.769531 13.441406 224.457031 C 5.25 190.886719 5.550781 156.035156 13.597656 124.363281 Z M 27.988281 233.664062 L 34.230469 248.703125 C 33.914062 248.738281 33.601562 248.796875 33.277344 248.796875 C 28.597656 248.796875 24.789062 244.984375 24.789062 240.300781 C 24.789062 237.664062 26 235.246094 27.988281 233.664062 Z M 33.273438 261.011719 C 21.867188 261.011719 12.585938 251.722656 12.585938 240.300781 C 12.585938 232.695312 16.714844 225.855469 23.242188 222.230469 L 26.152344 229.238281 C 22.429688 231.636719 20.113281 235.757812 20.113281 240.300781 C 20.113281 247.570312 26.019531 253.476562 33.277344 253.476562 C 34.230469 253.476562 35.164062 253.359375 36.078125 253.160156 L 39 260.195312 C 37.152344 260.730469 35.238281 261.011719 33.273438 261.011719 Z M 48.917969 271.890625 L 31.285156 229.398438 C 31.285156 229.394531 31.285156 229.394531 31.285156 229.390625 C 31.285156 229.390625 31.28125 229.390625 31.28125 229.386719 L 26.601562 218.109375 L 24.121094 212.128906 C 22.125 207.3125 21.976562 201.929688 23.710938 196.96875 C 26.734375 188.300781 31.167969 180.160156 37.089844 172.300781 L 87.785156 290.3125 C 77.390625 289.230469 68.019531 286.792969 59.421875 282.90625 C 54.707031 280.769531 50.976562 276.859375 48.917969 271.890625 Z M 44.972656 162.910156 C 49.527344 158.039062 55.929688 155.867188 62.519531 156.96875 C 69.058594 158.054688 74.589844 162.304688 77.316406 168.339844 L 119.261719 261.257812 C 122.226562 267.828125 121.652344 275.367188 117.730469 281.429688 C 113.859375 287.410156 107.335938 290.96875 100.257812 290.96875 C 100.234375 290.96875 100.210938 290.96875 100.191406 290.96875 C 97.753906 290.960938 95.390625 290.867188 93.0625 290.730469 L 40.390625 168.132812 C 41.847656 166.382812 43.359375 164.640625 44.972656 162.910156 Z M 150.09375 29.480469 C 117.976562 29.480469 88.804688 41.847656 65.730469 65.238281 C 54.03125 77.101562 44.34375 91.535156 36.867188 107.789062 L 21.210938 100.984375 C 26.828125 86.96875 34.097656 73.902344 42.984375 62.265625 C 69.4375 27.628906 106.472656 9.320312 150.09375 9.320312 C 193.714844 9.320312 230.75 27.628906 257.203125 62.265625 C 266.089844 73.902344 273.359375 86.972656 278.976562 100.984375 L 263.320312 107.789062 C 255.84375 91.535156 246.15625 77.101562 234.457031 65.238281 C 211.382812 41.847656 182.210938 29.480469 150.09375 29.480469 Z M 199.996094 290.976562 C 199.972656 290.976562 199.949219 290.976562 199.925781 290.976562 C 192.855469 290.976562 186.328125 287.414062 182.457031 281.433594 C 178.53125 275.371094 177.957031 267.828125 180.925781 261.261719 L 222.867188 168.34375 C 225.59375 162.308594 231.125 158.054688 237.667969 156.976562 C 238.789062 156.789062 239.90625 156.695312 241.007812 156.695312 C 246.386719 156.695312 251.429688 158.875 255.210938 162.914062 C 256.828125 164.640625 258.335938 166.386719 259.792969 168.136719 L 207.125 290.738281 C 204.792969 290.871094 202.433594 290.964844 199.996094 290.976562 Z M 251.265625 271.890625 C 249.207031 276.859375 245.476562 280.769531 240.765625 282.902344 C 232.167969 286.792969 222.792969 289.226562 212.402344 290.308594 L 263.09375 172.300781 C 269.015625 180.160156 273.449219 188.296875 276.476562 196.964844 C 278.207031 201.925781 278.0625 207.308594 276.0625 212.125 L 273.582031 218.109375 L 268.902344 229.386719 C 268.902344 229.386719 268.898438 229.386719 268.898438 229.390625 C 268.898438 229.390625 268.898438 229.390625 268.898438 229.394531 Z M 266.910156 261.011719 C 264.949219 261.011719 263.035156 260.730469 261.1875 260.195312 L 264.109375 253.160156 C 265.023438 253.359375 265.957031 253.476562 266.910156 253.476562 C 274.167969 253.476562 280.074219 247.570312 280.074219 240.300781 C 280.074219 235.757812 277.753906 231.636719 274.035156 229.238281 L 276.941406 222.230469 C 283.472656 225.855469 287.601562 232.695312 287.601562 240.300781 C 287.597656 251.722656 278.320312 261.011719 266.910156 261.011719 Z M 266.910156 261.011719 " fill-opacity="1" fill-rule="nonzero"/></g></svg>